<svg xmlns="http://www.w3.org/2000/svg" width="453" height="330.69" viewBox="0 0 453 330.69">
  <path id="Tracé_20" data-name="Tracé 20" d="M-94,6.8A122.646,122.646,0,0,1-145.186-4.077a116.85,116.85,0,0,1-41.676-31.937q-17.667-21.064-28.086-51.869t-10.419-70.668q0-39.864,10.419-70.668t28.086-51.868a116.85,116.85,0,0,1,41.676-31.936A122.646,122.646,0,0,1-94-323.9a122.646,122.646,0,0,1,51.189,10.872A116.849,116.849,0,0,1-1.132-281.087q17.667,21.064,28.086,51.868T37.372-158.55q0,39.864-10.419,70.668T-1.132-36.014A116.85,116.85,0,0,1-42.809-4.077,122.646,122.646,0,0,1-94,6.8Zm0-9.06q9.513,0,18.8-6.342t16.761-23.556q7.474-17.214,12-47.565t4.53-78.822q0-48.471-4.53-78.822t-12-47.565q-7.475-17.214-16.761-23.556T-94-314.835q-9.513,0-18.8,6.342t-16.761,23.556q-7.475,17.214-12,47.565t-4.53,78.822q0,48.471,4.53,78.822t12,47.565q7.474,17.214,16.761,23.556T-94-2.265Zm289.92-13.59,31.71,9.06V0H89.468V-6.8l31.71-9.06v-248.7L73.613-231.03l-9.06-11.325L147-317.1h48.924Z" transform="translate(225.368 323.895)" fill="#c5b096" opacity="0.1"/>
</svg>
