<svg xmlns="http://www.w3.org/2000/svg" width="520.95" height="330.69" viewBox="0 0 520.95 330.69">
  <path id="Tracé_19" data-name="Tracé 19" d="M-130.237,6.8A122.646,122.646,0,0,1-181.426-4.077,116.85,116.85,0,0,1-223.1-36.014q-17.667-21.064-28.086-51.869t-10.419-70.668q0-39.864,10.419-70.668t28.086-51.868a116.85,116.85,0,0,1,41.676-31.936A122.646,122.646,0,0,1-130.237-323.9a122.646,122.646,0,0,1,51.189,10.872,116.849,116.849,0,0,1,41.676,31.936q17.667,21.064,28.086,51.868T1.133-158.55q0,39.864-10.419,70.668T-37.372-36.014A116.85,116.85,0,0,1-79.048-4.077,122.646,122.646,0,0,1-130.237,6.8Zm0-9.06q9.513,0,18.8-6.342t16.761-23.556q7.474-17.214,12-47.565t4.53-78.822q0-48.471-4.53-78.822t-12-47.565q-7.475-17.214-16.761-23.556t-18.8-6.342q-9.513,0-18.8,6.342T-165.8-284.937q-7.475,17.214-12,47.565t-4.53,78.822q0,48.471,4.53,78.822t12,47.565q7.474,17.214,16.761,23.556T-130.237-2.265ZM256.625-231.03q0,27.18-13.137,45.98a132.488,132.488,0,0,1-33.3,32.842,293.8,293.8,0,0,1-44.621,25.368q-24.462,11.325-47.339,24.009A251.021,251.021,0,0,0,77.01-74.519,85.653,85.653,0,0,0,50.963-36.24h167.61a92.645,92.645,0,0,1,6.115-23.783,84.079,84.079,0,0,1,9.286-16.987A65.808,65.808,0,0,1,245.753-90.6h13.59V0H35.108V-20.385q0-27.633,10.646-48.924A171.654,171.654,0,0,1,72.48-108.267a347.328,347.328,0,0,1,34.881-33.3q18.8-15.628,34.881-31.71A167.793,167.793,0,0,0,168.969-207.7q10.646-18.347,10.645-41.449,0-30.8-14.949-47.112T127.52-312.57a90.175,90.175,0,0,0-15.175,1.133q-6.569,1.133-11.551,2.492l-9.513,3.171v72.48a53.7,53.7,0,0,1-5.889,1.359q-2.718.453-5.663.68t-6.568.226q-15.4,0-24.688-9.286t-9.286-24.688q0-9.966,5.889-20.612t18.12-19.026q12.231-8.38,30.577-13.816T136.58-323.9q31.257,0,54.133,6.569t37.372,18.573A73.424,73.424,0,0,1,249.6-269.535Q256.625-252.321,256.625-231.03Z" transform="translate(261.607 323.895)" fill="#c5b096" opacity="0.1"/>
</svg>
