<svg xmlns="http://www.w3.org/2000/svg" width="525.48" height="330.69" viewBox="0 0 525.48 330.69">
  <path id="Tracé_18" data-name="Tracé 18" d="M-132.5,6.8A122.646,122.646,0,0,1-183.691-4.077a116.85,116.85,0,0,1-41.676-31.937q-17.667-21.064-28.086-51.869t-10.419-70.668q0-39.864,10.419-70.668t28.086-51.868a116.85,116.85,0,0,1,41.676-31.936A122.646,122.646,0,0,1-132.5-323.9a122.646,122.646,0,0,1,51.189,10.872,116.849,116.849,0,0,1,41.676,31.936q17.667,21.064,28.086,51.868T-1.133-158.55q0,39.864-10.419,70.668T-39.637-36.014A116.85,116.85,0,0,1-81.314-4.077,122.646,122.646,0,0,1-132.5,6.8Zm0-9.06q9.513,0,18.8-6.342t16.761-23.556q7.474-17.214,12-47.565t4.53-78.822q0-48.471-4.53-78.822t-12-47.565q-7.475-17.214-16.761-23.556t-18.8-6.342q-9.513,0-18.8,6.342t-16.761,23.556q-7.475,17.214-12,47.565t-4.53,78.822q0,48.471,4.53,78.822t12,47.565q7.474,17.214,16.761,23.556T-132.5-2.265Zm285.39-163.08q30.351,1.359,54.36,10.419a138.239,138.239,0,0,1,19.932,10.192,72.052,72.052,0,0,1,17.44,14.949,74.353,74.353,0,0,1,12.231,20.838,73.956,73.956,0,0,1,4.757,27.407,82.717,82.717,0,0,1-7.475,34.881q-7.474,16.308-23.556,28.086T189.128,0Q163.76,6.8,127.973,6.8q-24.462,0-42.809-5.436T54.587-12.458q-12.231-8.381-18.12-18.8A42.025,42.025,0,0,1,30.578-52.1q0-15.4,9.287-24.688T64.553-86.07a43.425,43.425,0,0,1,6.568.453q2.945.453,5.663.906t5.889.906v72.48Q86.749-9.513,92.186-7.7a92.161,92.161,0,0,0,11.551,2.265,112.3,112.3,0,0,0,15.175.906q30.8,0,48.245-18.8T184.6-81.54q0-40.77-16.987-60.022t-44.168-19.253h-22.65V-172.14h22.65a40,40,0,0,0,18.12-4.3,43.7,43.7,0,0,0,15.176-12.91q6.568-8.607,10.419-21.971t3.85-31.031q0-35.787-14.723-53T121.178-312.57a67.174,67.174,0,0,0-12.684,1.133,79.585,79.585,0,0,0-9.966,2.492q-4.983,1.812-9.06,3.171v72.48a53.7,53.7,0,0,1-5.889,1.359q-2.718.453-5.663.68t-6.568.226q-15.4,0-24.688-9.286t-9.286-24.688q0-9.966,5.889-20.612t17.667-19.026q11.778-8.38,28.992-13.816t40.317-5.436q29.9,0,51.869,6.795T218.8-299.207q14.722,11.1,21.971,25.821a69.365,69.365,0,0,1,7.248,31.03,68.793,68.793,0,0,1-4.077,24.689,62.707,62.707,0,0,1-10.872,18.573,63.566,63.566,0,0,1-15.4,13.137,132.821,132.821,0,0,1-17.214,8.833q-21.291,8.154-47.565,9.513Z" transform="translate(263.873 323.895)" fill="#c5b096" opacity="0.1"/>
</svg>
