<svg xmlns="http://www.w3.org/2000/svg" width="618.284" height="620.5" viewBox="0 0 618.284 620.5">
  <path id="Tracé_15" data-name="Tracé 15" d="M870.006,427c-1.246-2.3-6.579-6.513-28.965-6.513-21.014,0-19.735-18.281-19.735-18.281l-.192-84.931s.6-5.222,2.549-6.874c2.217-1.861,10.127-4.7,13.028-6.151s22.451-9.241,32.948-22.814c15-19.371,8.808-26.963,4.359-53.96-4.359-26.246-31.374-123.6-31.374-123.6H839.6s4.327,79.511,3.437,101.681c-1.619,40.56-9.6,31.69-10.7-.529-.253-8.046-5.444-101.153-5.444-101.153H823.11s-1.167,86.851-1.8,101.329c-1.634,36.393-7.244,36.033-8.509-.176-.384-10.888-1.45-101.194-1.45-101.194h-4.357s-4.556,95.178-4.88,101.723c-1.8,37.3-8.878,35.491-11.057-1.081-1.271-21.649,2.908-100.661,2.908-100.661h-2.713s-21.905,77.546-30.112,120.031c-.946,4.85-13.048,38.634.948,55.05,13.378,15.668,38.408,26.192,45.637,29.694,5.622,2.709,4.348,9.058,4.348,9.058s.37,67.709.37,85.461c0,3.975-2.532,17.375-18.477,17.375-22.565,0-28.81,4-30.518,6.46l-23.7-.012-.175,8.87s144.016,6.756,164.35,13.531c18.83,6.281,38.617,17.8,38.617,53.277,0,60.371-53.165,81.7-76.768,93.03-23.655,11.349-99.228,27.757-157.893-22.454,0,0-66.626-45.4-92.7-157.655s.713-220.175,34.762-280.3c0,0,33.319-68.07,90.528-102.108,0,0,34.038-17.386,64.463-18.845,0,0,41.285-4.327,74.6,7.958,33.316,12.329,62.242,37.7,73.867,52.877,42.73,55.79,62.841,128.844,62.841,128.844h10.045l-5.7-188.321-10.229.1s-9.391,28.736-27.261,28.736S901.062-1.431,814.589.035C757.6,1,695.324,11.624,631.1,54.112c-1.8,1.2-82.077,46.356-116.854,167.55,0,0-12.066,41.541-13.991,103.331,0,0-.489,68.07,20.271,123.119,0,0,26.073,78.732,87.886,118.308,0,0,68.086,53.607,187.338,54.079,0,0,114.568.606,187.346-50.331,32.595-22.83,53.6-7.132,53.6-7.132s-5.793-61.683,0-82.307c3.5-12.483,17.756-31.159,36.938-37.673,10.742-3.648,44.9-6.9,44.9-6.9v-9.035Z" transform="translate(-500.252 0)" fill="#fff" opacity="0.13"/>
</svg>
