<svg xmlns="http://www.w3.org/2000/svg" width="911.889" height="137.067" viewBox="0 0 911.889 137.067">
  <path id="Tracé_26" data-name="Tracé 26" d="M-360.053-66.612a33.8,33.8,0,0,1,16.836,11.621q6.222,8.143,6.222,20.222,0,16.653-12.81,25.712T-387.137,0h-63.684V-128.1H-390.8q22.692,0,34.953,8.875t12.261,24.431a32.083,32.083,0,0,1-4.392,16.836A30.07,30.07,0,0,1-360.053-66.612Zm-66.978-42.822v35.319h33.672q12.444,0,19.124-4.483t6.68-13.085q0-8.784-6.68-13.268t-19.124-4.483Zm38.43,90.768q27.633,0,27.633-18.483T-388.6-55.632h-38.43v36.966ZM-272.762-98.82q21.594,0,33.031,10.34t11.438,31.2V0h-21.594V-11.9A26.614,26.614,0,0,1-261.873-2.1q-7.777,3.386-18.758,3.386A45.956,45.956,0,0,1-299.846-2.47,29.69,29.69,0,0,1-312.564-12.9,26.471,26.471,0,0,1-317.048-28q0-13.176,9.79-21.136t30.836-7.96h25.254V-58.56q0-10.248-6.13-15.738t-18.208-5.49a52.558,52.558,0,0,0-16.2,2.562,39.786,39.786,0,0,0-13.451,7.137l-8.967-16.653a55.525,55.525,0,0,1,18.483-8.967A82.238,82.238,0,0,1-272.762-98.82Zm-3.111,83.448a29.537,29.537,0,0,0,15.281-3.935,21.408,21.408,0,0,0,9.424-11.255V-41.907h-23.607q-19.764,0-19.764,12.993a11.663,11.663,0,0,0,4.941,9.882Q-284.657-15.372-275.873-15.372Zm102.3-68.076q9.882-15.372,34.77-15.372v21.777a29.04,29.04,0,0,0-5.307-.549q-13.359,0-20.862,7.778t-7.5,22.417V0h-22.875V-97.722h21.777Zm112-15.372A51.873,51.873,0,0,1-36.051-92.6,44.87,44.87,0,0,1-18.392-75.03q6.4,11.346,6.4,26.169t-6.4,26.261a44.707,44.707,0,0,1-17.66,17.66A51.873,51.873,0,0,1-61.58,1.281,47.274,47.274,0,0,1-79.971-2.2a35.391,35.391,0,0,1-14-10.431V0h-21.777V-135.786h22.875v49.959a38.41,38.41,0,0,1,13.816-9.7A45.272,45.272,0,0,1-61.58-98.82ZM-64.142-18.3q12.627,0,20.771-8.418t8.143-22.143q0-13.725-8.143-22.143t-20.771-8.418a29.42,29.42,0,0,0-14.823,3.752A27.112,27.112,0,0,0-89.4-64.965a32.752,32.752,0,0,0-3.843,16.1,32.752,32.752,0,0,0,3.843,16.1A27.112,27.112,0,0,0-78.965-22.052,29.42,29.42,0,0,0-64.142-18.3ZM105.316-48.312q0,2.379-.366,6.771H28.273A26.577,26.577,0,0,0,38.8-24.431q8.51,6.314,21.137,6.314,16.1,0,26.535-10.614L98.728-14.64a41.311,41.311,0,0,1-16.653,11.9A60.656,60.656,0,0,1,59.383,1.281q-16.1,0-28.365-6.405A46.129,46.129,0,0,1,12.078-22.967,50.388,50.388,0,0,1,5.4-48.861a51.133,51.133,0,0,1,6.5-25.711A46.083,46.083,0,0,1,29.92-92.415,52.594,52.594,0,0,1,55.906-98.82a51.273,51.273,0,0,1,25.529,6.314A44.714,44.714,0,0,1,99-74.756Q105.316-63.318,105.316-48.312ZM55.906-80.52q-10.98,0-18.575,6.5A27.327,27.327,0,0,0,28.09-56.73H83.539a26.967,26.967,0,0,0-8.967-17.2Q67.069-80.52,55.906-80.52Zm119.865,81.8A57.292,57.292,0,0,1,148.5-5.124a47.031,47.031,0,0,1-18.849-17.843,49.859,49.859,0,0,1-6.771-25.895,49.374,49.374,0,0,1,6.771-25.8,47.38,47.38,0,0,1,18.757-17.751,57.146,57.146,0,0,1,27.359-6.405q14.457,0,25.346,5.856A37.995,37.995,0,0,1,217.5-76.128L199.927-65.88A27.9,27.9,0,0,0,189.4-76.036a28.773,28.773,0,0,0-13.816-3.386q-12.81,0-21.228,8.327t-8.418,22.234q0,13.908,8.327,22.235t21.32,8.326A28.773,28.773,0,0,0,189.4-21.686a27.9,27.9,0,0,0,10.523-10.156L217.5-21.594A39.6,39.6,0,0,1,200.934-4.667Q190.045,1.281,175.771,1.281Zm159.759-99V0H313.753V-12.444A36.4,36.4,0,0,1,300.029-2.288a44.159,44.159,0,0,1-17.751,3.569q-19.581,0-30.836-10.889t-11.255-32.3V-97.722h22.875v52.7q0,13.176,5.947,19.673t16.928,6.5q12.261,0,19.49-7.594t7.228-21.868v-49.41Zm125.538,49.41q0,2.379-.366,6.771H384.026a26.577,26.577,0,0,0,10.522,17.111q8.51,6.314,21.137,6.314,16.1,0,26.535-10.614L454.48-14.64a41.311,41.311,0,0,1-16.653,11.9,60.656,60.656,0,0,1-22.692,4.026q-16.1,0-28.365-6.405a46.128,46.128,0,0,1-18.94-17.843,50.388,50.388,0,0,1-6.68-25.895,51.133,51.133,0,0,1,6.5-25.711,46.083,46.083,0,0,1,18.026-17.842,52.594,52.594,0,0,1,25.986-6.405,51.273,51.273,0,0,1,25.529,6.314,44.714,44.714,0,0,1,17.568,17.751Q461.069-63.318,461.069-48.312ZM411.659-80.52q-10.98,0-18.574,6.5a27.327,27.327,0,0,0-9.242,17.293h55.449a26.967,26.967,0,0,0-8.967-17.2Q422.822-80.52,411.659-80.52Z" transform="translate(450.821 135.786)" fill="#9e9e9e" opacity="0.2"/>
</svg>
