<svg xmlns="http://www.w3.org/2000/svg" width="45.334" height="45.485" viewBox="0 0 45.334 45.485">
  <g id="Groupe_164" data-name="Groupe 164" transform="translate(-633.333 -8932.757)">
    <g id="Groupe_104" data-name="Groupe 104" transform="translate(633.333 8932.757)">
      <g id="Groupe_103" data-name="Groupe 103">
        <path id="Tracé_32" data-name="Tracé 32" d="M42.007,4.095H20.449V5.43H42.007a2,2,0,0,1,2,2V27.238H20.316V7.6L16.989,2.04,13.662,7.6V27.238H11.444V0H3.9V27.238H1.331V7.433a2.016,2.016,0,0,1,1.278-1.87L2.13,4.317A3.359,3.359,0,0,0,0,7.433V32.356a3.336,3.336,0,0,0,3.327,3.338H15.791v4.9h-2a2.447,2.447,0,0,0-2.44,2.448v2.448H33.978V43.038a2.447,2.447,0,0,0-2.44-2.448h-2v-4.9H42.007a3.336,3.336,0,0,0,3.327-3.338V7.433A3.336,3.336,0,0,0,42.007,4.095Zm-25.018.541L18.738,7.56,16.989,8.612,15.24,7.56Zm-2,4.332,2,1.2,2-1.2v14.71H14.993V8.968Zm0,16.045h3.992v2.225H14.993Zm-9.759.623H8.472V24.3H5.234V22.965H7.053V21.63H5.234V20.3H8.472V18.96H5.234V17.625H7.053V16.29H5.234V14.954H8.472V13.619H5.234V12.284H7.053V10.949H5.234V9.613H8.472V8.278H5.234V6.943H7.053V5.608H5.234V4.273H8.472V2.937H5.234v-1.6h4.879v25.9H5.234Zm26.3,16.289a1.112,1.112,0,0,1,1.109,1.113V44.15H12.686V43.038A1.112,1.112,0,0,1,13.8,41.925ZM17.122,40.59v-4.9h11.09v4.9ZM44,32.356a2,2,0,0,1-2,2H3.327a2,2,0,0,1-2-2V28.573H44v3.783Z" fill="#c5b096"/>
      </g>
    </g>
    <g id="Groupe_134" data-name="Groupe 134" transform="translate(652.822 8963.903)">
      <g id="Groupe_114" data-name="Groupe 114" transform="translate(2.651 0)">
        <g id="Groupe_113" data-name="Groupe 113">
          <rect id="Rectangle_93" data-name="Rectangle 93" width="1.326" height="1.326" fill="#c5b096"/>
        </g>
      </g>
      <g id="Groupe_116" data-name="Groupe 116" transform="translate(5.302 0)">
        <g id="Groupe_115" data-name="Groupe 115">
          <rect id="Rectangle_94" data-name="Rectangle 94" width="1.326" height="1.326" fill="#c5b096"/>
        </g>
      </g>
      <g id="Groupe_118" data-name="Groupe 118">
        <g id="Groupe_117" data-name="Groupe 117">
          <rect id="Rectangle_95" data-name="Rectangle 95" width="1.326" height="1.326" fill="#c5b096"/>
        </g>
      </g>
    </g>
    <g id="Groupe_133" data-name="Groupe 133" transform="translate(649.817 8939.697)">
      <g id="Groupe_106" data-name="Groupe 106" transform="translate(10.782)">
        <g id="Groupe_105" data-name="Groupe 105">
          <path id="Tracé_33" data-name="Tracé 33" d="M306.6,76.149v7.512h15.466V76.149Zm14.14,6.186H307.925V77.475h12.814Z" transform="translate(-306.599 -76.149)" fill="#c5b096"/>
        </g>
      </g>
      <g id="Groupe_108" data-name="Groupe 108" transform="translate(10.782 8.837)">
        <g id="Groupe_107" data-name="Groupe 107">
          <path id="Tracé_34" data-name="Tracé 34" d="M306.6,176.344V181.2h7.07v-4.861Zm5.744,3.535h-4.419V177.67h4.419Z" transform="translate(-306.599 -176.344)" fill="#c5b096"/>
        </g>
      </g>
      <g id="Groupe_110" data-name="Groupe 110" transform="translate(19.177 8.837)">
        <g id="Groupe_109" data-name="Groupe 109">
          <path id="Tracé_35" data-name="Tracé 35" d="M401.785,176.344V181.2h7.07v-4.861Zm5.744,3.535h-4.419V177.67h4.419Z" transform="translate(-401.785 -176.344)" fill="#c5b096"/>
        </g>
      </g>
      <g id="Groupe_112" data-name="Groupe 112" transform="translate(5.347)">
        <g id="Groupe_111" data-name="Groupe 111">
          <path id="Tracé_36" data-name="Tracé 36" d="M248.955,77.475V76.149h-3.977v1.326H246.3V93.824h-1.326V95.15h3.977V93.824h-1.326V77.475Z" transform="translate(-244.978 -76.149)" fill="#c5b096"/>
        </g>
      </g>
      <g id="Groupe_120" data-name="Groupe 120" transform="translate(0 10.561)">
        <g id="Groupe_119" data-name="Groupe 119">
          <rect id="Rectangle_96" data-name="Rectangle 96" width="1.326" height="1.326" fill="#c5b096"/>
        </g>
      </g>
      <g id="Groupe_122" data-name="Groupe 122" transform="translate(0 13.212)">
        <g id="Groupe_121" data-name="Groupe 121">
          <rect id="Rectangle_97" data-name="Rectangle 97" width="1.326" height="2.209" fill="#c5b096"/>
        </g>
      </g>
      <g id="Groupe_124" data-name="Groupe 124" transform="translate(0 4.816)">
        <g id="Groupe_123" data-name="Groupe 123">
          <rect id="Rectangle_98" data-name="Rectangle 98" width="1.326" height="4.419" fill="#c5b096"/>
        </g>
      </g>
      <g id="Groupe_126" data-name="Groupe 126" transform="translate(15.863 15.465)">
        <g id="Groupe_125" data-name="Groupe 125">
          <rect id="Rectangle_99" data-name="Rectangle 99" width="1.326" height="1.326" fill="#c5b096"/>
        </g>
      </g>
      <g id="Groupe_128" data-name="Groupe 128" transform="translate(11.444 15.465)">
        <g id="Groupe_127" data-name="Groupe 127">
          <rect id="Rectangle_100" data-name="Rectangle 100" width="3.093" height="1.326" fill="#c5b096"/>
        </g>
      </g>
      <g id="Groupe_130" data-name="Groupe 130" transform="translate(19.84 15.465)">
        <g id="Groupe_129" data-name="Groupe 129">
          <rect id="Rectangle_101" data-name="Rectangle 101" width="3.093" height="1.326" fill="#c5b096"/>
        </g>
      </g>
      <g id="Groupe_132" data-name="Groupe 132" transform="translate(24.259 15.465)">
        <g id="Groupe_131" data-name="Groupe 131">
          <rect id="Rectangle_102" data-name="Rectangle 102" width="1.326" height="1.326" fill="#c5b096"/>
        </g>
      </g>
    </g>
  </g>
</svg>
