<svg id="_001-roast" data-name="001-roast" xmlns="http://www.w3.org/2000/svg" width="51.091" height="48.229" viewBox="0 0 51.091 48.229">
  <g id="Groupe_94" data-name="Groupe 94" transform="translate(23.392 0)">
    <g id="Groupe_93" data-name="Groupe 93">
      <path id="Tracé_27" data-name="Tracé 27" d="M236.71,19.557a2.118,2.118,0,0,1-.356-2.94l.809-1.065a.751.751,0,1,0-1.2-.908l-.809,1.065a3.613,3.613,0,0,0,.607,5.015,2.127,2.127,0,0,1,.456,2.8l-1.144,1.8a.751.751,0,1,0,1.267.806l1.144-1.8A3.627,3.627,0,0,0,236.71,19.557Z" transform="translate(-234.413 -14.347)" fill="#c5b096"/>
    </g>
  </g>
  <g id="Groupe_96" data-name="Groupe 96" transform="translate(26.946 0)">
    <g id="Groupe_95" data-name="Groupe 95">
      <path id="Tracé_28" data-name="Tracé 28" d="M272.331,19.559a2.118,2.118,0,0,1-.355-2.94l.809-1.065a.751.751,0,1,0-1.2-.908l-.809,1.065a3.613,3.613,0,0,0,.607,5.015,2.127,2.127,0,0,1,.456,2.8l-1.144,1.8a.751.751,0,1,0,1.267.806l1.144-1.8A3.627,3.627,0,0,0,272.331,19.559Z" transform="translate(-270.034 -14.349)" fill="#c5b096"/>
    </g>
  </g>
  <g id="Groupe_98" data-name="Groupe 98" transform="translate(0 13.958)">
    <g id="Groupe_97" data-name="Groupe 97">
      <path id="Tracé_29" data-name="Tracé 29" d="M50.341,161.863H47.572v-2.232a2.2,2.2,0,0,0-2.2-2.2H44.2a2.2,2.2,0,0,0-2.2,2.2v2.232H37.655a7.724,7.724,0,0,0-.165-1.617,7.6,7.6,0,0,0-7.427-6.025H24.112a8.8,8.8,0,0,0-8.711,7.641h-6.2v-2.619A1.811,1.811,0,0,0,7.4,157.436H5.451a1.811,1.811,0,0,0-1.809,1.809v2.619H.751a.751.751,0,1,0,0,1.5H3.642v2.892a.751.751,0,0,0,1.5,0v-6.625a.7.7,0,0,1,.694-.694H7.011a.7.7,0,0,1,.694.694v2.232c-.341.021-.59-.062-.868.124a.75.75,0,0,0,0,1.253c.278.186.525.1.868.124v17.347a.7.7,0,0,1-.694.695H5.838a.7.7,0,0,1-.694-.695V169.26a.751.751,0,0,0-1.5,0v10.455H2.989a1.7,1.7,0,0,0-1.7,1.7V187.1a1.394,1.394,0,0,0,1.393,1.392h7.323A1.4,1.4,0,0,0,11.4,187.1v-5.686a1.7,1.7,0,0,0-1.7-1.7H9.206v-16.35h6.12v1.007a5.151,5.151,0,0,0,5.145,5.144c12.409-.07,12.269.165,13.536-.221h.007l.114-.038a5.137,5.137,0,0,0,3.527-4.885v-1.007h4.353v16.35h-.575a1.7,1.7,0,0,0-1.7,1.7V187.1a1.4,1.4,0,0,0,1.393,1.392h7.323a1.394,1.394,0,0,0,1.393-1.392v-5.686a1.7,1.7,0,0,0-1.7-1.7h-.574v-3.525a.751.751,0,0,0-1.5,0c0,5.244,0,4.906,0,4.967a.309.309,0,0,1-.1.169.3.3,0,0,1-.121.068c-.061.022-2.067.013-2.083.008a.208.208,0,0,1-.064-.018.31.31,0,0,1-.178-.193c-.008-.025-.009-.034-.009-.034-.008-.049,0-8.083,0-21.525a.7.7,0,0,1,.694-.694h1.172a.7.7,0,0,1,.695.694v2.242a.75.75,0,0,0,0,1.482v9.83a.751.751,0,1,0,1.5,0v-9.822h2.769a.751.751,0,1,0,0-1.5ZM9.9,186.991H2.791V184.5H9.9Zm-.2-5.775a.2.2,0,0,1,.2.2V183H2.791v-1.587a.2.2,0,0,1,.2-.2h.658a1.812,1.812,0,0,0,1.8,1.692H7.4a1.812,1.812,0,0,0,1.8-1.692Zm22.31-23.947c-.844,5.4-.88,9-.107,10.745H20.471a3.648,3.648,0,0,1-3.644-3.643,16.061,16.061,0,0,1,.09-2.508,7.3,7.3,0,0,1,7.2-6.14c5.4.122,6.532-.317,8.409.517A1.888,1.888,0,0,0,32.009,157.269Zm3.366,6.1h.779v1.007a3.639,3.639,0,0,1-2.44,3.439h0a.257.257,0,0,1-.268-.114c-.633-.739-.952-3.806.048-10.2a.38.38,0,0,1,.621-.236,6.5,6.5,0,0,1,2.041,4.6h-.873c-.517-1.343-1.712-.685-1.712.91C33.569,164.568,35,165.048,35.375,163.365Zm12.968,23.626H41.236V184.5h7.107Zm-4.525-4.083h1.946a1.812,1.812,0,0,0,1.8-1.692h.578a.2.2,0,0,1,.2.2V183H41.236v-1.587a.2.2,0,0,1,.2-.2h.579A1.812,1.812,0,0,0,43.817,182.908Z" transform="translate(0 -154.222)" fill="#c5b096"/>
    </g>
  </g>
  <g id="Groupe_100" data-name="Groupe 100" transform="translate(18.829 15.979)">
    <g id="Groupe_99" data-name="Groupe 99">
      <path id="Tracé_30" data-name="Tracé 30" d="M200.1,181.224H199.08a19.345,19.345,0,0,1,.136-2.236h.885a.751.751,0,0,0,0-1.5h-.636a10.727,10.727,0,0,1,.452-1.6.751.751,0,0,0-1.386-.577,12.276,12.276,0,0,0-.606,2.178H196a11.465,11.465,0,0,1,.527-1.976.75.75,0,0,0-1.385-.578,12.826,12.826,0,0,0-.676,2.553H192.39a10.848,10.848,0,0,1,.461-1.642.751.751,0,0,0-1.386-.577,12.216,12.216,0,0,0-.614,2.218h-1.405a.751.751,0,0,0,0,1.5h1.18a20.6,20.6,0,0,0-.12,2.236h-1.06a.751.751,0,0,0,0,1.5h1.114a23.106,23.106,0,0,0,.328,2.569.751.751,0,1,0,1.476-.273,21.042,21.042,0,0,1-.3-2.3h2.193c.061.709.157,1.453.3,2.235a.751.751,0,0,0,1.476-.274c-.127-.682-.214-1.337-.27-1.961h1.854a22.546,22.546,0,0,0,.331,2.61.75.75,0,1,0,1.475-.273,21.145,21.145,0,0,1-.3-2.336h.969a.751.751,0,0,0,0-1.5Zm-5.915,0h-2.172a19.006,19.006,0,0,1,.131-2.236h2.123A20.8,20.8,0,0,0,194.186,181.224Zm3.387,0h-1.882a19.3,19.3,0,0,1,.092-2.236H197.7A20.259,20.259,0,0,0,197.573,181.224Z" transform="translate(-188.695 -174.472)" fill="#c5b096"/>
    </g>
  </g>
  <g id="Groupe_102" data-name="Groupe 102" transform="translate(15.486 29.49)">
    <g id="Groupe_101" data-name="Groupe 101">
      <path id="Tracé_31" data-name="Tracé 31" d="M173.35,320.438H170.6a6.272,6.272,0,0,0,.947-4.084,19.14,19.14,0,0,0-.072-2.355.917.917,0,0,0-1.465-.632l-1.927,1.331-1.5-4.25a.87.87,0,0,0-1.64,0l-1.5,4.248c-1.957-1.3-2.016-1.518-2.48-1.518a.916.916,0,0,0-.912.817,32.972,32.972,0,0,0-.067,3.432,5.338,5.338,0,0,0,.945,3.01h-3.789a1.961,1.961,0,0,0-1.959,1.959v4.4a1.768,1.768,0,0,0,1.767,1.766H169.75a.751.751,0,0,0,0-1.5H156.956a.265.265,0,0,1-.265-.264v-1.756a.266.266,0,0,1,.265-.265h16.586a.266.266,0,0,1,.265.265V326.8a.265.265,0,0,1-.265.264h-.789a.751.751,0,1,0,0,1.5h.789a1.768,1.768,0,0,0,1.767-1.766v-4.4A1.961,1.961,0,0,0,173.35,320.438Zm-11.86-5.272c1.733,1.158,1.777,1.337,2.23,1.337a.971.971,0,0,0,.929-.687l1.119-3.177,1.12,3.179a.971.971,0,0,0,1.547.463l1.614-1.114c.014.644-.011,1.519,0,2.262a3.938,3.938,0,0,1-1.442,3.008,4.339,4.339,0,0,1-5.648,0,4.007,4.007,0,0,1-1.458-3.006C161.5,316.638,161.473,315.865,161.489,315.166Zm12.318,8.128H156.69v-.9a.458.458,0,0,1,.457-.457h5.275a5.851,5.851,0,0,0,6.674,0h4.252a.458.458,0,0,1,.457.457v.9Z" transform="translate(-155.189 -309.87)" fill="#c5b096"/>
    </g>
  </g>
</svg>
