<svg xmlns="http://www.w3.org/2000/svg" width="836.493" height="129.381" viewBox="0 0 836.493 129.381">
  <path id="Tracé_25" data-name="Tracé 25" d="M-413.123-128.1h56q20.5,0,36.417,7.96A58.917,58.917,0,0,1-296-97.631q8.784,14.548,8.784,33.58T-296-30.469a58.917,58.917,0,0,1-24.7,22.509Q-336.629,0-357.125,0h-56Zm54.9,107.97q14.091,0,24.8-5.4A38.623,38.623,0,0,0-316.956-40.9q5.764-9.973,5.764-23.15t-5.764-23.15a38.623,38.623,0,0,0-16.47-15.372q-10.705-5.4-24.8-5.4h-31.11v87.84Zm189.588-28.182q0,2.379-.366,6.771h-76.677a26.577,26.577,0,0,0,10.523,17.111q8.51,6.314,21.137,6.314,16.1,0,26.535-10.614l12.261,14.091a41.311,41.311,0,0,1-16.653,11.9,60.656,60.656,0,0,1-22.692,4.026q-16.1,0-28.365-6.405a46.129,46.129,0,0,1-18.94-17.843,50.388,50.388,0,0,1-6.68-25.895,51.133,51.133,0,0,1,6.5-25.711,46.083,46.083,0,0,1,18.025-17.842,52.594,52.594,0,0,1,25.986-6.405,51.273,51.273,0,0,1,25.529,6.314,44.714,44.714,0,0,1,17.568,17.751Q-168.635-63.318-168.635-48.312Zm-49.41-32.208q-10.98,0-18.575,6.5a27.327,27.327,0,0,0-9.242,17.293h55.449a26.967,26.967,0,0,0-8.967-17.2Q-206.882-80.52-218.045-80.52Zm105.225,81.8A87.492,87.492,0,0,1-136.061-1.83Q-147.407-4.941-154.178-9.7l8.784-17.385a56.474,56.474,0,0,0,15.829,7.045,65.764,65.764,0,0,0,18.209,2.654q20.5,0,20.5-10.8,0-5.124-5.215-7.137t-16.744-3.843a135.848,135.848,0,0,1-19.673-4.209A30.2,30.2,0,0,1-145.668-51.7q-5.582-5.948-5.582-16.562,0-13.908,11.62-22.234t31.385-8.327a90.575,90.575,0,0,1,20.13,2.287A56.436,56.436,0,0,1-71.645-90.4l-8.784,17.385a54.181,54.181,0,0,0-28-7.32q-10.065,0-15.281,3.02t-5.215,7.961q0,5.49,5.581,7.778t17.294,4.3A133.438,133.438,0,0,1-86.834-53.07a30.075,30.075,0,0,1,12.9,8.052q5.4,5.673,5.4,16.1,0,13.725-11.9,21.96T-112.82,1.281Zm97.9,0A87.492,87.492,0,0,1-38.156-1.83Q-49.5-4.941-56.273-9.7l8.784-17.385a56.474,56.474,0,0,0,15.83,7.045,65.764,65.764,0,0,0,18.209,2.654q20.5,0,20.5-10.8,0-5.124-5.215-7.137t-16.745-3.843a135.848,135.848,0,0,1-19.672-4.209A30.2,30.2,0,0,1-47.763-51.7q-5.582-5.948-5.582-16.562,0-13.908,11.621-22.234T-10.34-98.82A90.575,90.575,0,0,1,9.79-96.533,56.436,56.436,0,0,1,26.26-90.4L17.476-73.017a54.181,54.181,0,0,0-28-7.32q-10.065,0-15.281,3.02t-5.216,7.961q0,5.49,5.581,7.778t17.293,4.3A133.438,133.438,0,0,1,11.071-53.07a30.075,30.075,0,0,1,12.9,8.052q5.4,5.673,5.4,16.1,0,13.725-11.9,21.96T-14.915,1.281ZM144.661-48.312q0,2.379-.366,6.771H67.618A26.577,26.577,0,0,0,78.141-24.431q8.51,6.314,21.137,6.314,16.1,0,26.535-10.614L138.073-14.64a41.311,41.311,0,0,1-16.653,11.9A60.656,60.656,0,0,1,98.728,1.281q-16.1,0-28.365-6.405A46.129,46.129,0,0,1,51.423-22.967a50.388,50.388,0,0,1-6.679-25.895,51.133,51.133,0,0,1,6.5-25.711A46.083,46.083,0,0,1,69.265-92.415,52.594,52.594,0,0,1,95.251-98.82a51.273,51.273,0,0,1,25.529,6.314,44.714,44.714,0,0,1,17.568,17.751Q144.661-63.318,144.661-48.312ZM95.251-80.52q-10.98,0-18.575,6.5A27.327,27.327,0,0,0,67.435-56.73h55.449a26.967,26.967,0,0,0-8.967-17.2Q106.414-80.52,95.251-80.52Zm96.807-2.928q9.882-15.372,34.77-15.372v21.777a29.04,29.04,0,0,0-5.307-.549q-13.359,0-20.862,7.778t-7.5,22.417V0H170.281V-97.722h21.777ZM312.289-5.307A26.929,26.929,0,0,1,302.5-.366a44.093,44.093,0,0,1-12.169,1.647q-16.1,0-24.888-8.418t-8.784-24.522V-78.69h-16.1v-18.3h16.1v-22.326h22.875V-96.99H305.7v18.3H279.533v46.482q0,7.137,3.477,10.889t10.065,3.752a20.1,20.1,0,0,0,12.81-4.026ZM423.371-48.312q0,2.379-.366,6.771H346.328A26.577,26.577,0,0,0,356.85-24.431q8.51,6.314,21.137,6.314,16.1,0,26.535-10.614L416.783-14.64a41.311,41.311,0,0,1-16.653,11.9,60.656,60.656,0,0,1-22.692,4.026q-16.1,0-28.365-6.405a46.128,46.128,0,0,1-18.94-17.843,50.388,50.388,0,0,1-6.68-25.895,51.133,51.133,0,0,1,6.5-25.711,46.083,46.083,0,0,1,18.026-17.842,52.594,52.594,0,0,1,25.986-6.405,51.273,51.273,0,0,1,25.529,6.314,44.714,44.714,0,0,1,17.568,17.751Q423.371-63.318,423.371-48.312ZM373.961-80.52q-10.98,0-18.574,6.5a27.327,27.327,0,0,0-9.242,17.293h55.449a26.967,26.967,0,0,0-8.967-17.2Q385.124-80.52,373.961-80.52Z" transform="translate(413.123 128.1)" fill="#9e9e9e" opacity="0.2"/>
</svg>
