<svg xmlns="http://www.w3.org/2000/svg" width="51.159" height="51.16" viewBox="0 0 51.159 51.16">
  <path id="_004-gestion-de-projet" data-name="004-gestion-de-projet" d="M.228,30.794A.8.8,0,0,0,0,31.361L.165,46.829a.8.8,0,0,0,.8.791H.973l7.467-.08a.8.8,0,0,0,.791-.808l-.007-.66,1-.337a1.166,1.166,0,0,1,.912.048l10.761,4.953a4.341,4.341,0,0,0,3.71.009l13.8-6.277a2.4,2.4,0,0,0,.85-3.72,5,5,0,0,0-5.217-1.677l-6.908,2.553c-.018-.059-.037-.118-.059-.176A3.2,3.2,0,0,0,26.4,39.636l-6.7-3.085a7.832,7.832,0,0,0-4.822-4.175,11.852,11.852,0,0,0-5.8-.46l-.007-.652a.8.8,0,0,0-.8-.791H8.257l-7.467.08a.8.8,0,0,0-.563.24Zm18.1,6.628a.8.8,0,0,0,.416.45l6.99,3.217a1.623,1.623,0,0,1-1.357,2.949l-6.037-2.779a.8.8,0,1,0-.668,1.452l6.037,2.779a3.2,3.2,0,0,0,1.34.3,3.237,3.237,0,0,0,3.143-2.479l7.405-2.737a3.44,3.44,0,0,1,3.435,1.2.8.8,0,0,1-.284,1.242l-13.8,6.277a2.748,2.748,0,0,1-2.38-.005L11.8,44.329a2.748,2.748,0,0,0-2.094-.11l-.5.17L9.089,33.542c3.5-.756,8.02.59,9.236,3.879Zm-10.85-5.34L7.623,45.95l-5.868.063L1.607,32.144Zm8.791-9.114a1.382,1.382,0,0,0-1.139,1.361v2.5a1.382,1.382,0,0,0,1.138,1.361l1.1.2a8.631,8.631,0,0,0,.422,1.017l-.637.916a1.382,1.382,0,0,0,.158,1.767l1.765,1.765a1.382,1.382,0,0,0,1.767.158l.916-.637a8.637,8.637,0,0,0,1.017.422l.2,1.1a1.382,1.382,0,0,0,1.361,1.139h2.5a1.382,1.382,0,0,0,1.361-1.139l.2-1.1A8.629,8.629,0,0,0,29.4,33.37l.916.637a1.382,1.382,0,0,0,1.767-.158l1.765-1.765a1.382,1.382,0,0,0,.158-1.767l-.637-.916a8.642,8.642,0,0,0,.422-1.017l1.1-.2a1.382,1.382,0,0,0,1.139-1.361v-2.5a1.382,1.382,0,0,0-1.139-1.361l-1.1-.2a8.623,8.623,0,0,0-.422-1.017l.637-.916a1.382,1.382,0,0,0-.158-1.767L32.086,17.3a1.382,1.382,0,0,0-1.767-.158l-.916.637a8.64,8.64,0,0,0-1.017-.422l-.2-1.1a1.382,1.382,0,0,0-1.361-1.139h-2.5a1.382,1.382,0,0,0-1.361,1.138l-.2,1.1a8.641,8.641,0,0,0-1.017.422l-.916-.637a1.382,1.382,0,0,0-1.767.158l-1.765,1.765a1.382,1.382,0,0,0-.158,1.767l.637.916a8.649,8.649,0,0,0-.422,1.017Zm1.859,1.29a.8.8,0,0,0,.629-.573,7.04,7.04,0,0,1,.661-1.594.8.8,0,0,0-.039-.851l-.81-1.167,1.51-1.51,1.167.811a.8.8,0,0,0,.851.039,7.041,7.041,0,0,1,1.594-.661.8.8,0,0,0,.573-.629l.252-1.4h2.136l.252,1.4a.8.8,0,0,0,.573.629,7.041,7.041,0,0,1,1.594.66.8.8,0,0,0,.851-.039l1.167-.811,1.51,1.51-.811,1.167a.8.8,0,0,0-.039.851,7.04,7.04,0,0,1,.661,1.594.8.8,0,0,0,.629.574l1.4.252v2.136l-1.4.252a.8.8,0,0,0-.629.573,7.043,7.043,0,0,1-.66,1.594.8.8,0,0,0,.039.851l.811,1.167-1.51,1.51-1.167-.811a.8.8,0,0,0-.85-.039,7.047,7.047,0,0,1-1.594.661.8.8,0,0,0-.574.629l-.252,1.4H24.511l-.252-1.4a.8.8,0,0,0-.573-.629,7.039,7.039,0,0,1-1.594-.66.8.8,0,0,0-.851.039l-1.167.811-1.51-1.511.811-1.167a.8.8,0,0,0,.039-.851,7.041,7.041,0,0,1-.661-1.594.8.8,0,0,0-.629-.574l-1.4-.252V24.508Zm7.454,6.471a5.152,5.152,0,1,0-5.152-5.152,5.152,5.152,0,0,0,5.152,5.152Zm0-8.7a3.553,3.553,0,1,1-3.553,3.553,3.553,3.553,0,0,1,3.553-3.553Zm25.414-17.7a.8.8,0,0,0-.808-.791l-7.467.08a.8.8,0,0,0-.791.808l.007.66-1,.337a1.167,1.167,0,0,1-.912-.048L29.266.417a4.34,4.34,0,0,0-3.71-.009l-13.8,6.277a2.4,2.4,0,0,0-.85,3.72,5.4,5.4,0,0,0,3.927,1.9,3.71,3.71,0,0,0,1.291-.225L23.028,9.53c.018.059.037.118.059.176a3.2,3.2,0,0,0,1.672,1.811l6.7,3.085a7.832,7.832,0,0,0,4.822,4.175,11.846,11.846,0,0,0,3.836.631,11.174,11.174,0,0,0,1.968-.172l.007.653a.8.8,0,0,0,.8.791H42.9l7.467-.08a.8.8,0,0,0,.79-.808Zm-18.16,9.408a.8.8,0,0,0-.416-.45l-6.99-3.217a1.623,1.623,0,0,1,1.357-2.949l6.037,2.779a.8.8,0,1,0,.668-1.452L27.453,5.663A3.224,3.224,0,0,0,22.97,7.847l-7.405,2.737a3.441,3.441,0,0,1-3.435-1.2.8.8,0,0,1,.284-1.242l13.8-6.277a2.749,2.749,0,0,1,2.38.005L39.358,6.823a2.748,2.748,0,0,0,2.094.11l.5-.17.116,10.847C38.572,18.366,34.048,17.02,32.833,13.731Zm10.85,5.34L43.535,5.2,49.4,5.14l.148,13.869Z" transform="translate(0 0.004)" fill="#c5b096"/>
</svg>
