<?xml version="1.0" encoding="UTF-8"?><svg id="Calque_1" xmlns="http://www.w3.org/2000/svg" viewBox="0 0 500 500"><defs><style>.cls-1{fill:#fff;}.cls-2{fill:#020202;}</style></defs><circle class="cls-2" cx="250" cy="250" r="250"/><path class="cls-1" d="M286.75,320.78c-.76-1.39-3.99-3.95-17.56-3.95-12.74,0-11.96-11.08-11.96-11.08l-.12-51.49s.36-3.17,1.54-4.17c1.34-1.13,6.14-2.85,7.9-3.73,1.76-.87,13.61-5.6,19.98-13.83,9.09-11.74,5.34-16.35,2.64-32.71-2.64-15.91-19.02-74.93-19.02-74.93h-1.83s2.62,48.21,2.08,61.65c-.98,24.59-5.82,19.21-6.49-.32-.15-4.88-3.3-61.33-3.3-61.33h-2.29s-.71,52.66-1.09,61.43c-.99,22.06-4.39,21.85-5.16-.11-.23-6.6-.88-61.35-.88-61.35h-2.64s-2.76,57.7-2.96,61.67c-1.09,22.61-5.38,21.52-6.7-.66-.77-13.13,1.76-61.03,1.76-61.03h-1.64s-13.28,47.02-18.26,72.77c-.57,2.94-7.91,23.42,.57,33.38,8.11,9.5,23.29,15.88,27.67,18,3.41,1.64,2.64,5.49,2.64,5.49,0,0,.22,41.05,.22,51.81,0,2.41-1.54,10.53-11.2,10.53-13.68,0-17.47,2.42-18.5,3.92h-14.37s-.11,5.37-.11,5.37c0,0,87.31,4.1,99.64,8.2,11.42,3.81,23.41,10.79,23.41,32.3,0,36.6-32.23,49.53-46.54,56.4-14.34,6.88-60.16,16.83-95.73-13.61,0,0-40.4-27.52-56.2-95.58-15.81-68.07,.43-133.49,21.08-169.94,0,0,20.2-41.27,54.89-61.91,0,0,20.64-10.54,39.08-11.43,0,0,25.03-2.62,45.23,4.82,20.2,7.48,37.74,22.86,44.78,32.06,25.91,33.82,38.1,78.12,38.1,78.12h6.09l-3.46-114.18-6.2,.06s-5.69,17.42-16.53,17.42-49.73-27.83-102.16-26.94c-34.55,.59-72.31,7.03-111.25,32.79-1.09,.73-49.76,28.1-70.85,101.58,0,0-7.32,25.19-8.48,62.65,0,0-.3,41.27,12.29,74.65,0,0,15.81,47.73,53.28,71.73,0,0,41.28,32.5,113.58,32.79,0,0,69.46,.37,113.58-30.51,19.76-13.84,32.5-4.32,32.5-4.32,0,0-3.51-37.4,0-49.9,2.12-7.57,10.76-18.89,22.39-22.84,6.51-2.21,27.22-4.18,27.22-4.18v-5.48l-150.68-.07Z"/></svg>