<svg xmlns="http://www.w3.org/2000/svg" xmlns:xlink="http://www.w3.org/1999/xlink" width="230.886" height="39.316" viewBox="0 0 230.886 39.316">
  <defs>
    <clipPath id="clip-path">
      <rect id="Rectangle_27" data-name="Rectangle 27" width="230.886" height="39.316" fill="#fff"/>
    </clipPath>
  </defs>
  <g id="Groupe_29" data-name="Groupe 29" transform="translate(0 -163.662)">
    <g id="Groupe_28" data-name="Groupe 28" transform="translate(0 163.662)" clip-path="url(#clip-path)">
      <path id="Tracé_4" data-name="Tracé 4" d="M16.412,672.736c0-2.257-.139-2.564-1.254-2.87a5.2,5.2,0,0,0-.947-.084c-.111,0-.223-.056-.223-.167,0-.167.139-.223.446-.223,1.254,0,3.009.084,3.149.084s1.895-.084,2.731-.084c.306,0,.446.056.446.223,0,.111-.111.167-.223.167a4.128,4.128,0,0,0-.7.084c-.752.139-.975.613-1.031,1.588-.056.892-.056,1.728-.056,2.9v3.121c0,1.254-.028,1.31-.362,1.5a13.768,13.768,0,0,1-5.907,1.254c-2.118,0-6.075-.279-9.168-2.982A10.877,10.877,0,0,1,0,669.309a10.561,10.561,0,0,1,4.653-9.167,13.683,13.683,0,0,1,7.412-1.755,23.86,23.86,0,0,1,4.263.474,13.87,13.87,0,0,0,2.257.279c.279.028.334.139.334.251a35.281,35.281,0,0,0-.2,3.957c0,.446-.056.585-.251.585-.139,0-.167-.167-.2-.418a4.28,4.28,0,0,0-.585-1.839c-.7-1.059-2.954-2.257-6.548-2.257a8.9,8.9,0,0,0-5.963,1.839c-1.616,1.282-2.759,3.817-2.759,7.078a11.363,11.363,0,0,0,2.954,7.719,10.143,10.143,0,0,0,7.3,2.982,7.606,7.606,0,0,0,3.177-.585,1.012,1.012,0,0,0,.557-.975Z" transform="translate(0 -650.597)" fill="#fff"/>
      <path id="Tracé_5" data-name="Tracé 5" d="M186.273,668.963c0-4.347,0-5.127-.056-6.019-.056-.947-.279-1.393-1.2-1.588a5.223,5.223,0,0,0-.947-.084c-.111,0-.223-.056-.223-.167,0-.167.139-.223.446-.223,1.254,0,2.954.084,3.2.084s1.923-.084,2.758-.084c.307,0,.446.056.446.223,0,.112-.111.167-.223.167a4.162,4.162,0,0,0-.7.084c-.752.111-.975.613-1.031,1.588-.056.892-.056,1.672-.056,6.019v3.9c0,4.013.892,5.74,2.09,6.883A5.452,5.452,0,0,0,195,681.279a5.854,5.854,0,0,0,4.375-2.006c1.282-1.588,1.616-3.957,1.616-6.827v-3.483c0-4.347,0-5.127-.056-6.019-.056-.947-.279-1.393-1.2-1.588a5.221,5.221,0,0,0-.947-.084c-.112,0-.223-.056-.223-.167,0-.167.139-.223.446-.223,1.254,0,2.786.084,2.954.084.2,0,1.5-.084,2.341-.084.307,0,.446.056.446.223,0,.112-.111.167-.223.167a4.16,4.16,0,0,0-.7.084c-.752.167-.975.613-1.031,1.588-.056.892-.056,1.672-.056,6.019v2.981c0,3.01-.334,6.353-2.564,8.332a8.162,8.162,0,0,1-5.74,2.062,8.557,8.557,0,0,1-5.74-1.978c-1.365-1.31-2.424-3.26-2.424-7.328Z" transform="translate(-155.12 -652.703)" fill="#fff"/>
      <path id="Tracé_6" data-name="Tracé 6" d="M380.284,667.759c0-4.347,0-5.127-.056-6.019-.056-.947-.279-1.393-1.2-1.588a5.22,5.22,0,0,0-.947-.084c-.111,0-.223-.056-.223-.167,0-.167.139-.223.446-.223.641,0,1.393,0,2.006.028l1.143.056c.2,0,5.74,0,6.381-.028a7.474,7.474,0,0,0,1.2-.139c.139-.028.251-.139.39-.139.084,0,.111.111.111.251,0,.2-.139.529-.223,1.31-.028.279-.084,1.5-.139,1.839-.028.139-.084.307-.2.307-.167,0-.223-.139-.223-.362a2.993,2.993,0,0,0-.167-1c-.2-.446-.474-.78-1.978-.947-.474-.056-3.511-.084-3.817-.084-.112,0-.167.084-.167.279v7.691c0,.2.028.279.167.279.362,0,3.79,0,4.431-.056.669-.056,1.059-.112,1.31-.39.2-.223.307-.362.418-.362.084,0,.139.056.139.223s-.139.641-.223,1.56c-.056.557-.111,1.588-.111,1.783,0,.223,0,.529-.2.529-.139,0-.2-.111-.2-.251a2.846,2.846,0,0,0-.111-.919c-.111-.39-.362-.864-1.449-.975-.752-.084-3.511-.139-3.985-.139a.176.176,0,0,0-.2.2v2.452c0,.947-.028,4.18,0,4.765.084,1.923.5,2.285,3.232,2.285a7.989,7.989,0,0,0,2.675-.307c.724-.307,1.059-.864,1.254-2.006.056-.307.111-.418.251-.418.167,0,.167.223.167.418a27.267,27.267,0,0,1-.362,2.7c-.2.724-.418.724-1.5.724-2.09,0-3.622-.056-4.709-.084-1.087-.056-1.756-.083-2.173-.083-.056,0-.529,0-1.115.028-.557,0-1.2.056-1.616.056-.306,0-.446-.056-.446-.223,0-.084.056-.167.223-.167a4.312,4.312,0,0,0,.836-.111c.557-.112.7-.725.808-1.533.139-1.17.139-3.372.139-6.047Z" transform="translate(-318.815 -651.499)" fill="#fff"/>
      <path id="Tracé_7" data-name="Tracé 7" d="M514.379,668.963c0-4.347,0-5.127-.056-6.019-.056-.947-.279-1.393-1.2-1.588a5.224,5.224,0,0,0-.947-.084c-.112,0-.223-.056-.223-.167,0-.167.139-.223.446-.223,1.254,0,2.954.084,3.2.084s1.923-.084,2.759-.084c.307,0,.446.056.446.223,0,.112-.111.167-.223.167a4.158,4.158,0,0,0-.7.084c-.752.111-.975.613-1.031,1.588-.056.892-.056,1.672-.056,6.019v3.9c0,4.013.892,5.74,2.09,6.883a5.452,5.452,0,0,0,4.208,1.533,5.854,5.854,0,0,0,4.375-2.006c1.282-1.588,1.616-3.957,1.616-6.827v-3.483c0-4.347,0-5.127-.056-6.019-.056-.947-.279-1.393-1.2-1.588a5.221,5.221,0,0,0-.947-.084c-.112,0-.223-.056-.223-.167,0-.167.139-.223.446-.223,1.254,0,2.786.084,2.954.084.2,0,1.5-.084,2.341-.084.306,0,.446.056.446.223,0,.112-.112.167-.223.167a4.158,4.158,0,0,0-.7.084c-.752.167-.975.613-1.031,1.588-.056.892-.056,1.672-.056,6.019v2.981c0,3.01-.334,6.353-2.564,8.332a8.162,8.162,0,0,1-5.74,2.062,8.557,8.557,0,0,1-5.74-1.978c-1.365-1.31-2.424-3.26-2.424-7.328Z" transform="translate(-431.956 -652.703)" fill="#fff"/>
      <path id="Tracé_8" data-name="Tracé 8" d="M710.731,673.923c0,4.1.111,5.88.613,6.381.446.446,1.17.641,3.344.641,1.477,0,2.7-.028,3.372-.836a3.882,3.882,0,0,0,.724-1.672c.028-.223.084-.362.251-.362.139,0,.167.111.167.418a17.792,17.792,0,0,1-.418,2.786c-.2.641-.279.752-1.755.752-2.006,0-3.455-.056-4.626-.084-1.17-.056-2.034-.083-2.842-.083-.111,0-.585.028-1.142.028-.557.028-1.17.056-1.588.056-.307,0-.446-.056-.446-.223,0-.084.056-.167.223-.167a4.312,4.312,0,0,0,.836-.111c.557-.112.7-.725.808-1.533.139-1.17.139-3.372.139-6.047v-4.9c0-4.347,0-5.127-.056-6.019-.056-.947-.279-1.393-1.2-1.588a5.223,5.223,0,0,0-.947-.084c-.111,0-.223-.056-.223-.167,0-.167.139-.223.446-.223,1.254,0,3.009.084,3.149.084s2.173-.084,3.009-.084c.307,0,.446.056.446.223,0,.112-.112.167-.223.167a6.566,6.566,0,0,0-.92.084c-.808.139-1.031.613-1.087,1.588-.056.892-.056,1.672-.056,6.019Z" transform="translate(-595.65 -652.703)" fill="#fff"/>
      <path id="Tracé_9" data-name="Tracé 9" d="M849.619,667.759c0-4.347,0-5.127-.056-6.019-.056-.947-.279-1.393-1.2-1.588a5.222,5.222,0,0,0-.947-.084c-.111,0-.223-.056-.223-.167,0-.167.139-.223.446-.223.641,0,1.393,0,2.006.028l1.143.056c.2,0,5.74,0,6.381-.028a7.473,7.473,0,0,0,1.2-.139c.139-.028.251-.139.39-.139.084,0,.111.111.111.251,0,.2-.139.529-.223,1.31-.028.279-.083,1.5-.139,1.839-.028.139-.084.307-.2.307-.167,0-.223-.139-.223-.362a2.992,2.992,0,0,0-.167-1c-.195-.446-.474-.78-1.978-.947-.474-.056-3.511-.084-3.818-.084-.111,0-.167.084-.167.279v7.691c0,.2.028.279.167.279.362,0,3.79,0,4.431-.056.669-.056,1.059-.112,1.31-.39.2-.223.307-.362.418-.362.084,0,.139.056.139.223s-.139.641-.223,1.56c-.056.557-.111,1.588-.111,1.783,0,.223,0,.529-.2.529-.139,0-.2-.111-.2-.251a2.846,2.846,0,0,0-.111-.919c-.112-.39-.362-.864-1.449-.975-.752-.084-3.511-.139-3.985-.139a.176.176,0,0,0-.195.2v2.452c0,.947-.028,4.18,0,4.765.084,1.923.5,2.285,3.232,2.285a7.988,7.988,0,0,0,2.675-.307c.725-.307,1.059-.864,1.254-2.006.056-.307.111-.418.251-.418.167,0,.167.223.167.418a27.246,27.246,0,0,1-.362,2.7c-.195.724-.418.724-1.5.724-2.09,0-3.622-.056-4.709-.084-1.087-.056-1.756-.083-2.173-.083-.056,0-.53,0-1.115.028-.557,0-1.2.056-1.616.056-.307,0-.446-.056-.446-.223,0-.084.056-.167.223-.167a4.309,4.309,0,0,0,.836-.111c.557-.112.7-.725.808-1.533.139-1.17.139-3.372.139-6.047Z" transform="translate(-714.81 -651.499)" fill="#fff"/>
      <path id="Tracé_10" data-name="Tracé 10" d="M990.062,671.76c0,2.675,0,4.876.139,6.047.084.808.251,1.421,1.087,1.533a12.158,12.158,0,0,0,1.254.111c.167,0,.223.084.223.167,0,.139-.139.223-.446.223-1.532,0-3.288-.084-3.427-.084s-1.895.084-2.731.084c-.306,0-.446-.056-.446-.223,0-.084.056-.167.223-.167a4.3,4.3,0,0,0,.836-.111c.557-.111.7-.724.808-1.533.139-1.17.139-3.372.139-6.047V659.973l-4.124.056c-1.728.028-2.4.223-2.842.892a4.9,4.9,0,0,0-.474.864c-.083.223-.167.279-.279.279-.084,0-.139-.084-.139-.251,0-.279.557-2.675.613-2.9.056-.167.167-.529.279-.529a5.205,5.205,0,0,0,1.226.334c.808.084,1.867.139,2.2.139h10.449a11.146,11.146,0,0,0,1.978-.139c.418-.056.669-.139.78-.139.14,0,.14.167.14.334,0,.836-.084,2.759-.084,3.065,0,.251-.084.362-.2.362-.139,0-.195-.083-.223-.474l-.028-.306c-.084-.836-.752-1.477-3.427-1.533l-3.511-.056Z" transform="translate(-826.748 -650.596)" fill="#fff"/>
      <path id="Tracé_11" data-name="Tracé 11" d="M1151.331,658.386c6.27,0,10.951,3.957,10.951,10.449,0,6.242-4.4,11.4-11.118,11.4-7.635,0-10.812-5.935-10.812-10.951a10.787,10.787,0,0,1,10.979-10.9m.585,20.787c2.508,0,7.691-1.449,7.691-9.558,0-6.688-4.068-10.282-8.471-10.282-4.653,0-8.137,3.065-8.137,9.168,0,6.492,3.9,10.672,8.917,10.672" transform="translate(-962.158 -650.597)" fill="#fff"/>
      <path id="Tracé_12" data-name="Tracé 12" d="M1338.06,676.051c.056,2.285.334,3.009,1.087,3.232a6.1,6.1,0,0,0,1.393.167c.139,0,.223.056.223.167,0,.167-.167.223-.5.223-1.588,0-2.7-.084-2.954-.084s-1.421.084-2.675.084c-.279,0-.446-.028-.446-.223,0-.111.083-.167.223-.167a3.994,3.994,0,0,0,1.142-.167c.7-.2.836-1,.836-3.539l.028-15.967c0-1.087.084-1.393.307-1.393s.7.613.975.892c.418.474,4.57,4.96,8.861,9.558,2.759,2.954,5.8,6.353,6.688,7.273l-.307-14.155c-.028-1.811-.223-2.424-1.087-2.647a7.428,7.428,0,0,0-1.365-.139c-.195,0-.223-.084-.223-.195,0-.167.223-.2.557-.2,1.254,0,2.591.084,2.9.084s1.226-.084,2.369-.084c.307,0,.5.028.5.2,0,.111-.112.195-.307.195a2.456,2.456,0,0,0-.669.084c-.919.2-1.031.808-1.031,2.48l-.056,16.329c0,1.839-.056,1.978-.251,1.978-.223,0-.557-.307-2.034-1.783-.306-.279-4.319-4.375-7.273-7.551-3.232-3.483-6.381-6.994-7.273-8Z" transform="translate(-1125.704 -650.596)" fill="#fff"/>
    </g>
  </g>
</svg>
