<svg xmlns="http://www.w3.org/2000/svg" width="51.533" height="54.123" viewBox="0 0 51.533 54.123">
  <g id="_003-hetre" data-name="003-hetre" transform="translate(0)">
    <path id="Tracé_37" data-name="Tracé 37" d="M59.975,152.519a6.212,6.212,0,0,1-1.479.921.793.793,0,0,0-.348,1.152,3.605,3.605,0,0,1,.568,1.946,3.65,3.65,0,0,1-2.321,3.384.793.793,0,0,0-.492.9,3.571,3.571,0,0,1,.07.7,3.512,3.512,0,0,1-4.758,3.282.793.793,0,0,0,.461-.5l1.6-5.183a4.242,4.242,0,0,0,2.489-2.13.793.793,0,1,0-1.414-.718,2.685,2.685,0,0,1-4.612.3,2.706,2.706,0,0,1-.442-1.147.793.793,0,1,0-1.571.218,4.3,4.3,0,0,0,.464,1.426l-1.3,2.879-3.184.239-.1-1.648a4.436,4.436,0,0,0,1.819-3.575.793.793,0,0,0-1.586,0,2.842,2.842,0,0,1-5.167,1.634.793.793,0,0,0-1.3,0,2.841,2.841,0,0,1-5.167-1.634.793.793,0,0,0-1.586,0,4.436,4.436,0,0,0,1.819,3.575l-.1,1.648-3.184-.239-1.3-2.879a4.3,4.3,0,0,0,.465-1.426.793.793,0,1,0-1.571-.218,2.687,2.687,0,0,1-1.446,2.028,2.686,2.686,0,0,1-3.608-1.18.793.793,0,1,0-1.414.718,4.242,4.242,0,0,0,2.489,2.13l1.6,5.183a.792.792,0,0,0,.461.5,3.512,3.512,0,0,1-4.758-3.282,3.571,3.571,0,0,1,.07-.7.793.793,0,0,0-.492-.9,3.65,3.65,0,0,1-2.321-3.384,3.6,3.6,0,0,1,.568-1.946.793.793,0,0,0-.348-1.152,6.2,6.2,0,0,1,.694-11.6.793.793,0,0,0,.538-.953,5.157,5.157,0,0,1,.149-3,.793.793,0,1,0-1.491-.539,6.7,6.7,0,0,0-.4,2.284,6.781,6.781,0,0,0,.065.935,7.867,7.867,0,0,0-3.279,2.53,7.783,7.783,0,0,0,2.33,11.417,5.2,5.2,0,0,0-.412,2.03,5.251,5.251,0,0,0,2.758,4.6c-.01.129-.014.258-.014.386a5.1,5.1,0,0,0,8.231,4.019l1.137.444a.793.793,0,1,0,.577-1.477l-2.658-1.037-1.281-4.16a4.264,4.264,0,0,0,2.237-.894L27.9,161.03a.793.793,0,0,0,.663.463l4.454.334.059,0a.793.793,0,0,0,.791-.744l.113-1.827a4.415,4.415,0,0,0,4.037-1.017,4.415,4.415,0,0,0,4.037,1.017l.113,1.827a.793.793,0,0,0,.791.744l.059,0,4.454-.334a.793.793,0,0,0,.663-.463l1.185-2.614a4.266,4.266,0,0,0,2.237.894l-1.281,4.16-7.236,2.824a.793.793,0,0,0-.5.788l.224,3.621a3.475,3.475,0,0,0,2.477,3.114l.213.063a1.892,1.892,0,0,1,1.173,1.013H29.412a1.891,1.891,0,0,1,1.168-1.012l.217-.064a3.475,3.475,0,0,0,2.475-3.112l.224-3.623a.793.793,0,0,0-.5-.788l-1.137-.444a.793.793,0,0,0-.577,1.477l.6.234-.188,3.047a1.884,1.884,0,0,1-1.341,1.688l-.218.064a3.49,3.49,0,0,0-2.482,3.326.793.793,0,0,0,.793.793H47.588a.793.793,0,0,0,.793-.793,3.471,3.471,0,0,0-2.483-3.326l-.214-.063a1.885,1.885,0,0,1-1.343-1.689l-.188-3.045,5.176-2.02a5.1,5.1,0,0,0,8.231-4.019q0-.193-.014-.386a5.251,5.251,0,0,0,2.758-4.6,5.2,5.2,0,0,0-.412-2.031,7.8,7.8,0,0,0,1.1-.773.793.793,0,0,0-1.018-1.216Z" transform="translate(-12.248 -122.355)" fill="#c5b096"/>
    <path id="Tracé_38" data-name="Tracé 38" d="M124.742,20.736a7.866,7.866,0,0,0-3.279-2.53,6.715,6.715,0,0,0-6.172-7.628c0-.01,0-.021,0-.031a5.22,5.22,0,0,0-5.213-5.215q-.194,0-.386.014c0-.044,0-.088,0-.131A5.215,5.215,0,0,0,100.537,1.8,5.215,5.215,0,0,0,91.38,5.215q0,.066,0,.131Q91.19,5.332,91,5.332a5.22,5.22,0,0,0-5.213,5.215c0,.01,0,.021,0,.031A6.67,6.67,0,0,0,82.51,11.7a.793.793,0,1,0,.886,1.315,5.1,5.1,0,0,1,2.86-.872c.105,0,.221,0,.344.012a.793.793,0,0,0,.831-.936,3.693,3.693,0,0,1-.063-.676A3.632,3.632,0,0,1,91,6.918a3.584,3.584,0,0,1,1.08.164.793.793,0,0,0,1.007-.953,3.693,3.693,0,0,1-.116-.914A3.628,3.628,0,0,1,99.83,3.573a.793.793,0,0,0,1.414,0,3.628,3.628,0,0,1,6.864,1.642,3.694,3.694,0,0,1-.116.914A.793.793,0,0,0,109,7.082a3.584,3.584,0,0,1,1.08-.164,3.632,3.632,0,0,1,3.627,3.629,3.692,3.692,0,0,1-.063.676.793.793,0,0,0,.831.936c.123-.008.239-.012.344-.012a5.129,5.129,0,0,1,4.969,6.382.793.793,0,0,0,.538.953,6.2,6.2,0,0,1,4.017,8.062.793.793,0,1,0,1.489.546,7.79,7.79,0,0,0-1.088-7.353Z" transform="translate(-74.77 0)" fill="#c5b096"/>
    <path id="Tracé_39" data-name="Tracé 39" d="M155.034,246.324a4.937,4.937,0,0,0,2.483-.66,6.127,6.127,0,0,0,8.667,0,4.994,4.994,0,0,0,6.666-1.608.793.793,0,1,0-1.328-.866,3.405,3.405,0,0,1-4.976.807.793.793,0,0,0-1.118.131,4.54,4.54,0,0,1-7.155,0,.793.793,0,0,0-1.118-.132,3.406,3.406,0,0,1-4.977-.807.793.793,0,0,0-1.328.867A4.981,4.981,0,0,0,155.034,246.324Z" transform="translate(-136.083 -217.161)" fill="#c5b096"/>
  </g>
</svg>
