<svg xmlns="http://www.w3.org/2000/svg" width="52.866" height="36.338" viewBox="0 0 52.866 36.338">
  <path id="Tracé_40" data-name="Tracé 40" d="M51.833,87.559H50.4L46.9,80.6a1.032,1.032,0,0,0-.922-.568H6.892a1.033,1.033,0,0,0-.922.568L2.462,87.559H1.033A1.033,1.033,0,0,0,0,88.592V92.8A1.033,1.033,0,0,0,1.033,93.83H2.065v21.51A1.033,1.033,0,0,0,3.1,116.373h25.11a1.033,1.033,0,1,0,0-2.065h-.743v-4.639H31.1a1.033,1.033,0,0,0,1.033-1.033v-4.13a1.033,1.033,0,0,0-1.033-1.033H27.465V98.835h10.8v15.473H37.5a1.033,1.033,0,1,0,0,2.065H49.768A1.033,1.033,0,0,0,50.8,115.34V93.83h1.033A1.033,1.033,0,0,0,52.866,92.8V88.592A1.033,1.033,0,0,0,51.833,87.559Zm-3.742,0H41.2L39.549,82.1h5.79Zm-34.268,0L15.475,82.1h5.908l-.551,5.459ZM23.458,82.1h5.949l.551,5.459h-7.05Zm8.575,5.459L31.483,82.1h5.908l1.652,5.459ZM7.528,82.1h5.79l-1.652,5.459H4.775ZM4.13,97.96H7.375v12.217H4.13ZM30.067,107.6H22.8v-2.065h7.269Zm-4.667-4.13H21.766a1.033,1.033,0,0,0-1.033,1.033v4.13a1.033,1.033,0,0,0,1.033,1.033H25.4v4.639H14.6V98.835H25.4Zm23.335,6.7H45.491V97.96h3.245Zm0-14.283H44.458a1.033,1.033,0,0,0-1.033,1.033V111.21a1.033,1.033,0,0,0,1.033,1.033h4.277v2.065H40.328V97.8A1.033,1.033,0,0,0,39.3,96.77H13.57A1.033,1.033,0,0,0,12.537,97.8v16.506H4.13v-2.065H8.407A1.033,1.033,0,0,0,9.44,111.21V96.928A1.033,1.033,0,0,0,8.407,95.9H4.13V93.83H48.736Zm2.065-4.13H2.065V89.625H50.8Z" transform="translate(0 -80.035)" fill="#c5b096"/>
</svg>
