<svg xmlns="http://www.w3.org/2000/svg" width="138" height="138.495" viewBox="0 0 138 138.495">
  <path id="Tracé_14" data-name="Tracé 14" d="M582.781,95.306c-.278-.513-1.469-1.454-6.465-1.454-4.69,0-4.4-4.08-4.4-4.08l-.043-18.957a3.084,3.084,0,0,1,.569-1.534,23.164,23.164,0,0,1,2.908-1.373c.649-.322,5.011-2.063,7.354-5.092,3.348-4.324,1.966-6.018.973-12.044-.973-5.858-7-27.586-7-27.586h-.675s.966,17.747.767,22.7c-.361,9.053-2.142,7.073-2.389-.118-.057-1.8-1.215-22.577-1.215-22.577h-.843s-.26,19.385-.4,22.616c-.365,8.123-1.617,8.042-1.9-.039-.086-2.43-.324-22.586-.324-22.586h-.973s-1.017,21.244-1.089,22.7c-.4,8.325-1.982,7.922-2.468-.241-.284-4.832.649-22.467.649-22.467H565.2s-4.889,17.308-6.721,26.791c-.211,1.082-2.912,8.623.212,12.287,2.986,3.5,8.573,5.846,10.186,6.628a1.88,1.88,0,0,1,.97,2.022s.082,15.113.082,19.075a3.874,3.874,0,0,1-4.124,3.878c-5.037,0-6.43.893-6.812,1.442l-5.29,0-.039,1.98s32.144,1.508,36.683,3.02c4.2,1.4,8.619,3.972,8.619,11.891,0,13.475-11.866,18.236-17.135,20.764s-22.148,6.2-35.241-5.012c0,0-14.871-10.132-20.69-35.188s.159-49.143,7.759-62.563c0,0,7.437-15.193,20.206-22.79,0,0,7.6-3.881,14.388-4.206,0,0,9.215-.966,16.651,1.776a41.031,41.031,0,0,1,16.487,11.8c9.537,12.452,14.026,28.758,14.026,28.758h2.242L616.389,3.49l-2.283.022s-2.1,6.414-6.085,6.414S589.712-.319,570.412.008c-12.719.216-26.62,2.587-40.955,12.07-.4.268-18.319,10.347-26.082,37.4a102.341,102.341,0,0,0-3.123,23.063s-.109,15.193,4.525,27.48c0,0,5.819,17.573,19.616,26.406,0,0,15.2,11.965,41.814,12.07,0,0,25.571.135,41.815-11.234,7.275-5.1,11.964-1.592,11.964-1.592s-1.293-13.767,0-18.371a14,14,0,0,1,8.245-8.409c2.4-.814,10.022-1.54,10.022-1.54V95.334Z" transform="translate(-500.252 0)" fill="#fff"/>
</svg>
